<svg width="761" height="785" viewBox="0 0 761 785" fill="none" xmlns="http://www.w3.org/2000/svg">
<rect x="351" y="83" width="15" height="605" rx="4" fill="black"/>
<rect x="132" y="100.306" width="15" height="362" rx="4" transform="rotate(-38.3463 132 100.306)" fill="black"/>
<path d="M359 379C385.133 379 411.01 375.172 435.154 367.734C459.298 360.296 481.235 349.395 499.714 335.652C518.193 321.909 532.851 305.593 542.852 287.637C552.853 269.681 558 250.436 558 231C558 211.564 552.853 192.319 542.852 174.363C532.851 156.407 518.193 140.091 499.714 126.348C481.235 112.605 459.298 101.704 435.154 94.2658C411.01 86.8281 385.133 83 359 83V97.0628C382.65 97.0628 406.068 100.527 427.918 107.258C449.768 113.989 469.621 123.855 486.344 136.292C503.067 148.729 516.332 163.494 525.383 179.744C534.433 195.994 539.091 213.411 539.091 231C539.091 248.589 534.433 266.006 525.383 282.256C516.332 298.506 503.067 313.271 486.344 325.708C469.621 338.145 449.768 348.011 427.918 354.742C406.068 361.473 382.65 364.937 359 364.937V379Z" fill="black"/>
<ellipse cx="558" cy="664.5" rx="24" ry="23.5" fill="black"/>
</svg>
